<?xml version="1.0" encoding="UTF-8"?>
<svg width="1920px" height="1920px" viewBox="0 0 1920 1920" xmlns="http://www.w3.org/2000/svg" xmlns:xlink="http://www.w3.org/1999/xlink" version="1.1">
 <!-- Generated by Pixelmator Pro 1.6.4 -->
 <path id="Shape-2" d="M760 336 L1322 336 C1429.495 337.679 1520.853 384.245 1562 476 1584.25 520.92 1708.456 766.466 1727 801 1783.351 905.942 1784.834 984.772 1726 1055 1683.376 1105.878 1358 1475 1358 1475 1319.832 1513.168 1234.848 1585 1112 1585 L535 1585 C463.904 1585 363.962 1530.766 333 1468 333 1468 168.917 1153.192 140 1099 95.245 1015.126 96.22 941.563 158 859 183.378 825.084 526 439 526 439 572.176 388.313 686.281 337.395 760 336 Z" fill="#e21e3c" fill-opacity="1" stroke="#ffffff" stroke-width="100" stroke-opacity="1" stroke-linejoin="round"/>
 <path id="Shape" d="M585.999 1369 C555.873 1368 547.999 1353.762 551.999 1326 L583.999 1137 C589.14 1102.736 599.368 1084.285 631.999 1083 L848.999 1083 C881.63 1084.285 880.426 1110.021 873.999 1143 L839.999 1323 C833.572 1355.979 817.393 1369 787.333 1369 L585.999 1369 Z M912.999 1369 C882.873 1368 874.999 1353.762 878.999 1326 L910.999 1137 C916.141 1102.736 926.368 1084.285 958.999 1083 L1175.999 1083 C1208.63 1084.285 1207.426 1110.021 1200.999 1143 L1166.999 1323 C1160.572 1355.979 1144.393 1369 1114.333 1369 L912.999 1369 Z M529.999 896 C499.873 895 491.999 880.762 495.999 853 L527.999 664 C533.14 629.736 543.368 611.285 575.999 610 L792.999 610 C825.63 611.285 824.426 637.021 817.999 670 L783.999 850 C777.572 882.979 761.393 896 731.333 896 L529.999 896 Z M856.999 896 C826.873 895 818.999 880.762 822.999 853 L854.999 664 C860.141 629.736 870.368 611.285 902.999 610 L1119.999 610 C1152.63 611.285 1151.426 637.021 1144.999 670 L1110.999 850 C1104.572 882.979 1088.393 896 1058.333 896 L856.999 896 Z M1183.999 896 C1153.873 895 1145.999 880.762 1149.999 853 L1181.999 664 C1187.14 629.736 1197.368 611.285 1229.999 610 L1446.999 610 C1479.63 611.285 1478.426 637.021 1471.999 670 L1437.999 850 C1431.572 882.979 1415.393 896 1385.333 896 L1183.999 896 Z" fill="#fcffff" fill-opacity="1" stroke="none"/>
</svg>
